<?xml version="1.0" encoding="UTF-8" standalone="no"?>
<svg
   xmlns:dc="http://purl.org/dc/elements/1.1/"
   xmlns:cc="http://creativecommons.org/ns#"
   xmlns:rdf="http://www.w3.org/1999/02/22-rdf-syntax-ns#"
   xmlns:svg="http://www.w3.org/2000/svg"
   xmlns="http://www.w3.org/2000/svg"
   viewBox="0 0 330.66666 330.66666"
   height="330.66666"
   width="330.66666"
   xml:space="preserve"
   id="svg2"
   version="1.1"><metadata
     id="metadata8"><rdf:RDF><cc:Work
         rdf:about=""><dc:format>image/svg+xml</dc:format><dc:type
           rdf:resource="http://purl.org/dc/dcmitype/StillImage" /></cc:Work></rdf:RDF></metadata><defs
     id="defs6"><clipPath
       id="clipPath18"
       clipPathUnits="userSpaceOnUse"><path
         id="path16"
         d="M 0,248 H 248 V 0 H 0 Z" /></clipPath><clipPath
       id="clipPath62"
       clipPathUnits="userSpaceOnUse"><path
         id="path60"
         d="M 0,248 H 248 V 0 H 0 Z" /></clipPath><clipPath
       id="clipPath70"
       clipPathUnits="userSpaceOnUse"><path
         id="path68"
         d="m 118,96.8752 h 15 v -16 h -15 z" /></clipPath><clipPath
       id="clipPath84"
       clipPathUnits="userSpaceOnUse"><path
         id="path82"
         d="m 137,119 h 15 v -16 h -15 z" /></clipPath><clipPath
       id="clipPath98"
       clipPathUnits="userSpaceOnUse"><path
         id="path96"
         d="M 0,248 H 248 V 0 H 0 Z" /></clipPath><clipPath
       id="clipPath106"
       clipPathUnits="userSpaceOnUse"><path
         id="path104"
         d="m 103,96.8752 h 15 v -16 h -15 z" /></clipPath><clipPath
       id="clipPath120"
       clipPathUnits="userSpaceOnUse"><path
         id="path118"
         d="m 152,119 h 15 v -16 h -15 z" /></clipPath></defs><g
     transform="matrix(1.3333333,0,0,-1.3333333,0,330.66667)"
     id="g10"><g
       id="g12"><g
         clip-path="url(#clipPath18)"
         id="g14"><g
           transform="translate(168.833,151.626)"
           id="g20"><path
             id="path22"
             style="fill:#040606;fill-opacity:1;fill-rule:nonzero;stroke:none"
             d="m 0,0 c 3.86,0 7,-3.141 7,-7 0,-3.86 -3.14,-7 -7,-7 -3.86,0 -7,3.14 -7,7 0,3.859 3.14,7 7,7 m 0,-18 c 6.065,0 11,4.935 11,11 0,6.065 -4.935,11 -11,11 -6.065,0 -11,-4.935 -11,-11 0,-6.065 4.935,-11 11,-11" /></g><g
           transform="translate(134.833,157.626)"
           id="g24"><path
             id="path26"
             style="fill:#040606;fill-opacity:1;fill-rule:nonzero;stroke:none"
             d="m 0,0 c 3.86,0 7,-3.141 7,-7 0,-3.86 -3.14,-7 -7,-7 -3.86,0 -7,3.14 -7,7 0,3.859 3.14,7 7,7 m 0,-18 c 6.065,0 11,4.935 11,11 0,6.065 -4.935,11 -11,11 -6.065,0 -11,-4.935 -11,-11 0,-6.065 4.935,-11 11,-11" /></g><g
           transform="translate(178,71.875)"
           id="g28"><path
             id="path30"
             style="fill:#040606;fill-opacity:1;fill-rule:nonzero;stroke:none"
             d="m 0,0 h -18 v 47 c 0,5.067 3.953,9.036 9,9.036 4.962,0 9,-4.093 9,-9.124 z m -9,60.036 c -7.28,0 -12.983,-5.71 -12.999,-13.006 H -22 V -3 -4 h 1 24 1 v 1 49.912 c 0,7.237 -5.832,13.124 -13,13.124" /></g><g
           transform="translate(180.8208,63.6665)"
           id="g32"><path
             id="path34"
             style="fill:#040606;fill-opacity:1;fill-rule:nonzero;stroke:none"
             d="m 0,0 h -127.095 c -13.565,0 -26.389,14.388 -26.389,29.605 0,16.325 13.281,29.606 29.606,29.606 0.499,0 1.005,-0.014 1.515,-0.041 l 1.828,-0.096 0.257,1.812 c 0.908,6.392 3.803,12.184 8.371,16.751 5.365,5.366 12.482,8.439 20.04,8.654 l 1.338,0.037 0.475,1.251 c 2.552,6.713 6.702,11.715 12.147,17.161 9.84,9.841 22.946,15.26 36.902,15.26 13.956,0 27.062,-5.419 36.902,-15.26 C 4.012,96.625 8.572,87.838 10.248,77.087 l 0.191,-1.227 1.185,-0.372 C 27.782,70.402 38.638,55.594 38.638,38.638 38.638,17.333 21.305,0 0,0 M 13.999,78.916 C 12.039,89.996 7.165,99.129 -1.274,107.568 -11.87,118.165 -25.98,124 -41.005,124 c -15.025,0 -29.135,-5.835 -39.73,-16.432 -5.483,-5.483 -9.749,-10.584 -12.57,-17.343 -8.088,-0.547 -15.654,-3.982 -21.43,-9.759 -4.763,-4.762 -7.923,-10.697 -9.205,-17.255 -18.503,-0.033 -33.544,-15.095 -33.544,-33.606 0,-17.273 14.769,-33.605 30.389,-33.605 H 0 c 23.511,0 42.638,19.127 42.638,42.638 0,18.298 -11.456,34.329 -28.639,40.278" /></g><g
           transform="translate(100.833,145.626)"
           id="g36"><path
             id="path38"
             style="fill:#040606;fill-opacity:1;fill-rule:nonzero;stroke:none"
             d="m 0,0 c 3.86,0 7,-3.141 7,-7 0,-3.86 -3.14,-7 -7,-7 -3.86,0 -7,3.14 -7,7 0,3.859 3.14,7 7,7 m 0,-18 c 6.065,0 11,4.935 11,11 0,6.065 -4.935,11 -11,11 -6.065,0 -11,-4.935 -11,-11 0,-6.065 4.935,-11 11,-11" /></g><g
           transform="translate(144,102.875)"
           id="g40"><path
             id="path42"
             style="fill:#040606;fill-opacity:1;fill-rule:nonzero;stroke:none"
             d="M 0,0 V -31 H -18 V 0 1 21.912 c 0,5.031 4.037,9.124 9,9.124 4.962,0 9,-4.093 9,-9.124 V 1 Z m -9,35.036 c -7.168,0 -13,-5.887 -13,-13.124 V 1.125 1 0 -34 -35 h 1 24 1 v 1 34 1 20.912 c 0,7.237 -5.832,13.124 -13,13.124" /></g><g
           transform="translate(110,71.875)"
           id="g44"><path
             id="path46"
             style="fill:#040606;fill-opacity:1;fill-rule:nonzero;stroke:none"
             d="m 0,0 h -18 v 40.912 c 0,5.031 4.037,9.124 9,9.124 4.962,0 9,-4.093 9,-9.124 z m -9,54.036 c -7.168,0 -13,-5.887 -13,-13.124 V -3 -4 h 1 24 1 v 1 43.912 c 0,7.237 -5.832,13.124 -13,13.124" /></g></g></g><path
       id="path48"
       style="fill:#408fd4;fill-opacity:1;fill-rule:nonzero;stroke:none"
       d="m 88,96.875 h 60 v -16 H 88 Z" /><path
       id="path50"
       style="fill:#408fd4;fill-opacity:1;fill-rule:nonzero;stroke:none"
       d="m 182,103 h -60 v 16 h 60 z" /><path
       id="path52"
       style="fill:#eda217;fill-opacity:1;fill-rule:nonzero;stroke:none"
       d="m 133,96.875 h 15 v -16 h -15 z" /><path
       id="path54"
       style="fill:#eda217;fill-opacity:1;fill-rule:nonzero;stroke:none"
       d="m 137,103 h -15 v 16 h 15 z" /><g
       id="g56"><g
         clip-path="url(#clipPath62)"
         id="g58"><g
           id="g64"><g
             id="g66" /><g
             id="g76"><g
               style="opacity:0.69999701"
               id="g74"
               clip-path="url(#clipPath70)"><path
                 id="path72"
                 style="fill:#eda217;fill-opacity:1;fill-rule:nonzero;stroke:none"
                 d="m 118,96.875 h 15 v -16 h -15 z" /></g></g></g><g
           id="g78"><g
             id="g80" /><g
             id="g90"><g
               style="opacity:0.69999701"
               id="g88"
               clip-path="url(#clipPath84)"><path
                 id="path86"
                 style="fill:#eda217;fill-opacity:1;fill-rule:nonzero;stroke:none"
                 d="m 152,103 h -15 v 16 h 15 z" /></g></g></g></g></g><g
       id="g92"><g
         clip-path="url(#clipPath98)"
         id="g94"><g
           id="g100"><g
             id="g102" /><g
             id="g112"><g
               style="opacity:0.39999402"
               id="g110"
               clip-path="url(#clipPath106)"><path
                 id="path108"
                 style="fill:#eda217;fill-opacity:1;fill-rule:nonzero;stroke:none"
                 d="m 103,96.875 h 15 v -16 h -15 z" /></g></g></g><g
           id="g114"><g
             id="g116" /><g
             id="g126"><g
               style="opacity:0.39999402"
               id="g124"
               clip-path="url(#clipPath120)"><path
                 id="path122"
                 style="fill:#eda217;fill-opacity:1;fill-rule:nonzero;stroke:none"
                 d="m 167,103 h -15 v 16 h 15 z" /></g></g></g></g></g></g></svg>