<?xml version="1.0" encoding="UTF-8" standalone="no"?>
<svg
   xmlns:dc="http://purl.org/dc/elements/1.1/"
   xmlns:cc="http://creativecommons.org/ns#"
   xmlns:rdf="http://www.w3.org/1999/02/22-rdf-syntax-ns#"
   xmlns:svg="http://www.w3.org/2000/svg"
   xmlns="http://www.w3.org/2000/svg"
   viewBox="0 0 330.66666 330.66666"
   height="330.66666"
   width="330.66666"
   xml:space="preserve"
   id="svg2"
   version="1.1"><metadata
     id="metadata8"><rdf:RDF><cc:Work
         rdf:about=""><dc:format>image/svg+xml</dc:format><dc:type
           rdf:resource="http://purl.org/dc/dcmitype/StillImage" /></cc:Work></rdf:RDF></metadata><defs
     id="defs6"><clipPath
       id="clipPath18"
       clipPathUnits="userSpaceOnUse"><path
         id="path16"
         d="M 0,248 H 248 V 0 H 0 Z" /></clipPath><clipPath
       id="clipPath30"
       clipPathUnits="userSpaceOnUse"><path
         id="path28"
         d="M 0,248 H 248 V 0 H 0 Z" /></clipPath><clipPath
       id="clipPath42"
       clipPathUnits="userSpaceOnUse"><path
         id="path40"
         d="M 0,248 H 248 V 0 H 0 Z" /></clipPath><clipPath
       id="clipPath50"
       clipPathUnits="userSpaceOnUse"><path
         id="path48"
         d="m 135.384,105.118 h 37.649 V 94.4284 h -37.649 z" /></clipPath><clipPath
       id="clipPath66"
       clipPathUnits="userSpaceOnUse"><path
         id="path64"
         d="M 0,248 H 248 V 0 H 0 Z" /></clipPath><clipPath
       id="clipPath74"
       clipPathUnits="userSpaceOnUse"><path
         id="path72"
         d="m 136.155,103.733 h 36.693 V 89.9669 h -36.693 z" /></clipPath><clipPath
       id="clipPath90"
       clipPathUnits="userSpaceOnUse"><path
         id="path88"
         d="M 0,248 H 248 V 0 H 0 Z" /></clipPath></defs><g
     transform="matrix(1.3333333,0,0,-1.3333333,0,330.66667)"
     id="g10"><g
       id="g12"><g
         clip-path="url(#clipPath18)"
         id="g14"><g
           transform="translate(138.0156,100.3936)"
           id="g20"><path
             id="path22"
             style="fill:#05a1e6;fill-opacity:1;fill-rule:nonzero;stroke:none"
             d="m 0,0 33.247,-14.614 c 0.191,0.663 0.368,1.332 0.526,2.008 0.022,0.093 0.039,0.19 0.059,0.284 0.309,1.353 0.562,2.728 0.752,4.122 0.013,0.093 0.02,0.186 0.033,0.279 0.149,1.127 0.265,2.263 0.327,3.413 0.018,0.322 0.017,0.65 0.029,0.974 0.002,0.076 0.003,0.152 0.006,0.228 0.017,0.452 0.039,0.903 0.039,1.359 0,0.444 -0.022,0.884 -0.034,1.325 -0.018,0.637 -0.052,1.269 -0.095,1.9 -0.003,0.043 -0.01,0.086 -0.013,0.129 -0.048,0.665 -0.117,1.324 -0.191,1.983 L -3.32,5.959 Z" /></g></g></g><g
       id="g24"><g
         clip-path="url(#clipPath30)"
         id="g26"><g
           transform="translate(135.3838,105.1182)"
           id="g32"><path
             id="path34"
             style="fill:#fab20b;fill-opacity:1;fill-rule:nonzero;stroke:none"
             d="m 0,0 37.634,-6.044 c -0.007,0.232 -0.012,0.465 -0.018,0.697 -0.018,0.637 -0.053,1.27 -0.095,1.901 -0.003,0.043 -0.01,0.086 -0.013,0.129 -0.048,0.665 -0.117,1.324 -0.192,1.982 L -0.688,1.234 Z" /></g></g></g><g
       id="g36"><g
         clip-path="url(#clipPath42)"
         id="g38"><g
           id="g44"><g
             id="g46" /><g
             id="g58"><g
               style="opacity:0.69999701"
               id="g56"
               clip-path="url(#clipPath50)"><g
                 id="g54"
                 transform="translate(136.1553,103.7334)"><path
                   id="path52"
                   style="fill:#fab20b;fill-opacity:1;fill-rule:nonzero;stroke:none"
                   d="m 0,0 36.693,-9.305 c 0.044,0.484 0.085,0.969 0.112,1.457 0.017,0.323 0.016,0.65 0.028,0.974 0.002,0.076 0.003,0.152 0.006,0.228 0.017,0.452 0.039,0.903 0.039,1.359 0,0.21 -0.01,0.419 -0.016,0.628 L -0.771,1.385 Z" /></g></g></g></g></g></g><g
       id="g60"><g
         clip-path="url(#clipPath66)"
         id="g62"><g
           id="g68"><g
             id="g70" /><g
             id="g82"><g
               style="opacity:0.39999402"
               id="g80"
               clip-path="url(#clipPath74)"><g
                 id="g78"
                 transform="translate(137.0264,102.1699)"><path
                   id="path76"
                   style="fill:#fab20b;fill-opacity:1;fill-rule:nonzero;stroke:none"
                   d="m 0,0 35.211,-12.203 c 0.137,0.737 0.26,1.478 0.362,2.226 0.013,0.093 0.021,0.187 0.033,0.28 0.085,0.648 0.156,1.301 0.216,1.956 L -0.871,1.563 Z" /></g></g></g></g></g></g><g
       id="g84"><g
         clip-path="url(#clipPath90)"
         id="g86"><g
           transform="translate(171.8477,88.0713)"
           id="g92"><path
             id="path94"
             style="fill:#231f20;fill-opacity:1;fill-rule:nonzero;stroke:none"
             d="M 0,0 C 0.144,0.627 0.271,1.26 0.39,1.896 0.526,2.633 0.649,3.374 0.752,4.122 0.765,4.215 0.772,4.309 0.785,4.401 0.87,5.05 0.94,5.702 1.001,6.357 1.045,6.841 1.086,7.326 1.112,7.814 1.13,8.137 1.129,8.464 1.141,8.788 1.143,8.864 1.144,8.94 1.146,9.017 c 0.018,0.451 0.04,0.902 0.04,1.358 0,0.21 -0.01,0.419 -0.016,0.628 -0.007,0.231 -0.012,0.465 -0.018,0.697 -0.018,0.637 -0.052,1.27 -0.095,1.901 -0.003,0.043 -0.01,0.086 -0.013,0.128 -0.048,0.666 -0.117,1.325 -0.191,1.983 -0.104,0.913 -0.226,1.821 -0.382,2.719 -3.828,21.916 -22.978,38.632 -45.974,38.632 -25.299,0 -45.947,-20.231 -46.653,-45.363 -0.012,-0.441 -0.034,-0.881 -0.034,-1.325 0,-0.859 0.027,-1.712 0.073,-2.561 0.314,-5.779 1.696,-11.276 3.931,-16.313 0.608,-1.369 1.279,-2.704 2.011,-4 8.015,-14.199 23.237,-23.814 40.672,-23.814 17.436,0 32.653,9.615 40.666,23.814 0.732,1.296 1.4,2.631 2.009,4 0.635,1.431 1.195,2.9 1.688,4.4 0.197,0.598 0.381,1.201 0.555,1.807 0.19,0.663 0.368,1.332 0.526,2.008 C -0.037,-0.19 -0.021,-0.094 0,0 M 5.037,11.7 5.006,7.814 C 4.718,2.074 3.463,-3.415 1.41,-8.499 c -0.551,-1.365 -1.164,-2.697 -1.827,-4 -8.365,-16.42 -25.429,-27.698 -45.086,-27.698 -19.656,0 -36.719,11.278 -45.084,27.698 -0.663,1.303 -1.277,2.635 -1.828,4 -2.053,5.084 -3.307,10.573 -3.595,16.313 l -0.032,3.886 c 0.708,27.274 23.098,49.248 50.539,49.248 27.442,0 49.833,-21.974 50.54,-49.248 m -68.672,-14.358 33.694,0.012 -16.857,30.257 -6.197,-11.14 -2.494,-4.483 z m -23.086,12.16 28.703,5.931 11.218,20.167 9.648,-17.319 0.688,-1.234 0.772,-1.385 0.871,-1.563 0.989,-1.777 10.502,-18.851 -46.913,-0.016 9.732,17.495 -25.424,-5.254 z M 50.111,30.139 c 0,-23.511 -19.127,-42.638 -42.638,-42.638 h -7.89 c 0.663,1.303 1.276,2.635 1.827,4 h 6.063 c 21.305,0 38.638,17.333 38.638,38.638 0,16.955 -10.856,31.764 -27.014,36.849 l -1.185,0.373 -0.191,1.227 c -1.676,10.75 -6.236,19.537 -14.35,27.652 -9.842,9.841 -22.947,15.26 -36.903,15.26 -13.956,0 -27.062,-5.419 -36.902,-15.26 -5.445,-5.446 -9.595,-10.448 -12.147,-17.161 l -0.475,-1.25 -1.338,-0.038 c -7.558,-0.214 -14.674,-3.288 -20.04,-8.653 -4.568,-4.568 -7.462,-10.36 -8.371,-16.751 l -0.257,-1.813 -1.828,0.097 c -0.51,0.027 -1.016,0.041 -1.515,0.041 -16.325,0 -29.606,-13.281 -29.606,-29.606 0,-15.217 12.824,-29.605 26.389,-29.605 h 27.207 c 0.551,-1.365 1.165,-2.697 1.828,-4 h -29.035 c -15.62,0 -30.389,16.331 -30.389,33.605 0,18.51 15.041,33.573 33.544,33.606 1.282,6.558 4.443,12.493 9.205,17.254 5.776,5.777 13.343,9.213 21.43,9.76 2.821,6.759 7.087,11.859 12.57,17.342 10.595,10.597 24.705,16.432 39.73,16.432 15.024,0 29.136,-5.835 39.731,-16.432 C 14.638,90.63 19.512,81.497 21.472,70.416 38.654,64.468 50.111,48.436 50.111,30.139" /></g></g></g></g></svg>